<mxfile host="app.diagrams.net" modified="2023-10-21T03:15:15.153Z" agent="Mozilla/5.0 (Macintosh; Intel Mac OS X 10_15_7) AppleWebKit/537.36 (KHTML, like Gecko) Chrome/114.0.0.0 Safari/537.36" etag="uyaef6AvS7w7D6G9Q9ES" version="21.6.5" type="github">
  <diagram name="第 1 页" id="UQLnYtc5WX-sZIt1ygW3">
    <mxGraphModel dx="1861" dy="1068" grid="1" gridSize="10" guides="1" tooltips="1" connect="1" arrows="1" fold="1" page="1" pageScale="1" pageWidth="827" pageHeight="1169" math="0" shadow="0">
      <root>
        <mxCell id="0" />
        <mxCell id="1" parent="0" />
        <mxCell id="p6P-zNKTo9UFHfSMEd2O-32" value="" style="rounded=1;whiteSpace=wrap;html=1;movable=1;resizable=1;rotatable=1;deletable=1;editable=1;locked=0;connectable=1;fillColor=#80D0FF;" vertex="1" parent="1">
          <mxGeometry x="110" y="382" width="340" height="160" as="geometry" />
        </mxCell>
        <mxCell id="p6P-zNKTo9UFHfSMEd2O-1" value="" style="rounded=1;whiteSpace=wrap;html=1;movable=1;resizable=1;rotatable=1;deletable=1;editable=1;locked=0;connectable=1;fillColor=#99CCFF;" vertex="1" parent="1">
          <mxGeometry x="-320" y="383" width="340" height="160" as="geometry" />
        </mxCell>
        <mxCell id="p6P-zNKTo9UFHfSMEd2O-14" value="&lt;font style=&quot;font-size: 36px;&quot;&gt;...&lt;/font&gt;" style="text;html=1;strokeColor=none;fillColor=none;align=center;verticalAlign=middle;whiteSpace=wrap;rounded=0;" vertex="1" parent="1">
          <mxGeometry x="40" y="450" width="60" height="30" as="geometry" />
        </mxCell>
        <mxCell id="p6P-zNKTo9UFHfSMEd2O-57" style="edgeStyle=orthogonalEdgeStyle;rounded=0;orthogonalLoop=1;jettySize=auto;html=1;" edge="1" parent="1" source="p6P-zNKTo9UFHfSMEd2O-52">
          <mxGeometry relative="1" as="geometry">
            <mxPoint x="320" y="400" as="targetPoint" />
          </mxGeometry>
        </mxCell>
        <mxCell id="p6P-zNKTo9UFHfSMEd2O-58" style="edgeStyle=orthogonalEdgeStyle;rounded=0;orthogonalLoop=1;jettySize=auto;html=1;" edge="1" parent="1" source="p6P-zNKTo9UFHfSMEd2O-52">
          <mxGeometry relative="1" as="geometry">
            <mxPoint x="-110" y="400" as="targetPoint" />
            <Array as="points">
              <mxPoint x="320" y="310" />
              <mxPoint x="-110" y="310" />
            </Array>
          </mxGeometry>
        </mxCell>
        <mxCell id="p6P-zNKTo9UFHfSMEd2O-52" value="Users&lt;br&gt;" style="shape=umlActor;verticalLabelPosition=bottom;verticalAlign=top;html=1;outlineConnect=0;" vertex="1" parent="1">
          <mxGeometry x="305" y="180" width="30" height="60" as="geometry" />
        </mxCell>
        <mxCell id="p6P-zNKTo9UFHfSMEd2O-60" style="edgeStyle=orthogonalEdgeStyle;rounded=0;orthogonalLoop=1;jettySize=auto;html=1;" edge="1" parent="1" source="p6P-zNKTo9UFHfSMEd2O-59">
          <mxGeometry relative="1" as="geometry">
            <mxPoint x="70" y="540" as="targetPoint" />
          </mxGeometry>
        </mxCell>
        <mxCell id="p6P-zNKTo9UFHfSMEd2O-59" value="Developer" style="shape=umlActor;verticalLabelPosition=bottom;verticalAlign=top;html=1;outlineConnect=0;" vertex="1" parent="1">
          <mxGeometry x="-220" y="640" width="30" height="60" as="geometry" />
        </mxCell>
        <mxCell id="p6P-zNKTo9UFHfSMEd2O-17" value="" style="group;movable=0;resizable=0;rotatable=0;deletable=0;editable=0;locked=1;connectable=0;" vertex="1" connectable="0" parent="1">
          <mxGeometry x="-60" y="432" width="60" height="70" as="geometry" />
        </mxCell>
        <mxCell id="p6P-zNKTo9UFHfSMEd2O-19" value="" style="group;movable=0;resizable=0;rotatable=0;deletable=0;editable=0;locked=1;connectable=0;" vertex="1" connectable="0" parent="p6P-zNKTo9UFHfSMEd2O-17">
          <mxGeometry width="60" height="70" as="geometry" />
        </mxCell>
        <mxCell id="p6P-zNKTo9UFHfSMEd2O-15" value="" style="rounded=1;whiteSpace=wrap;html=1;" vertex="1" parent="p6P-zNKTo9UFHfSMEd2O-19">
          <mxGeometry width="60" height="70" as="geometry" />
        </mxCell>
        <mxCell id="p6P-zNKTo9UFHfSMEd2O-16" value="Pod" style="text;html=1;strokeColor=none;fillColor=none;align=center;verticalAlign=middle;whiteSpace=wrap;rounded=0;" vertex="1" parent="p6P-zNKTo9UFHfSMEd2O-19">
          <mxGeometry y="20" width="60" height="30" as="geometry" />
        </mxCell>
        <mxCell id="p6P-zNKTo9UFHfSMEd2O-20" value="" style="group;movable=0;resizable=0;rotatable=0;deletable=0;editable=0;locked=1;connectable=0;" vertex="1" connectable="0" parent="1">
          <mxGeometry x="-213" y="432" width="59" height="70" as="geometry" />
        </mxCell>
        <mxCell id="p6P-zNKTo9UFHfSMEd2O-21" value="" style="group;movable=0;resizable=0;rotatable=0;deletable=0;editable=0;locked=1;connectable=0;" vertex="1" connectable="0" parent="p6P-zNKTo9UFHfSMEd2O-20">
          <mxGeometry width="60" height="70" as="geometry" />
        </mxCell>
        <mxCell id="p6P-zNKTo9UFHfSMEd2O-22" value="" style="rounded=1;whiteSpace=wrap;html=1;" vertex="1" parent="p6P-zNKTo9UFHfSMEd2O-21">
          <mxGeometry width="60" height="70" as="geometry" />
        </mxCell>
        <mxCell id="p6P-zNKTo9UFHfSMEd2O-23" value="Pod" style="text;html=1;strokeColor=none;fillColor=none;align=center;verticalAlign=middle;whiteSpace=wrap;rounded=0;" vertex="1" parent="p6P-zNKTo9UFHfSMEd2O-21">
          <mxGeometry y="20" width="60" height="30" as="geometry" />
        </mxCell>
        <mxCell id="p6P-zNKTo9UFHfSMEd2O-24" value="" style="group;movable=0;resizable=0;rotatable=0;deletable=0;editable=0;locked=1;connectable=0;" vertex="1" connectable="0" parent="1">
          <mxGeometry x="-288" y="433" width="59" height="70" as="geometry" />
        </mxCell>
        <mxCell id="p6P-zNKTo9UFHfSMEd2O-25" value="" style="group;movable=0;resizable=0;rotatable=0;deletable=0;editable=0;locked=1;connectable=0;" vertex="1" connectable="0" parent="p6P-zNKTo9UFHfSMEd2O-24">
          <mxGeometry width="60" height="70" as="geometry" />
        </mxCell>
        <mxCell id="p6P-zNKTo9UFHfSMEd2O-26" value="" style="rounded=1;whiteSpace=wrap;html=1;" vertex="1" parent="p6P-zNKTo9UFHfSMEd2O-25">
          <mxGeometry width="60" height="70" as="geometry" />
        </mxCell>
        <mxCell id="p6P-zNKTo9UFHfSMEd2O-27" value="Pod" style="text;html=1;strokeColor=none;fillColor=none;align=center;verticalAlign=middle;whiteSpace=wrap;rounded=0;" vertex="1" parent="p6P-zNKTo9UFHfSMEd2O-25">
          <mxGeometry y="20" width="60" height="30" as="geometry" />
        </mxCell>
        <mxCell id="p6P-zNKTo9UFHfSMEd2O-28" value="&lt;font style=&quot;font-size: 36px;&quot;&gt;...&lt;/font&gt;" style="text;html=1;strokeColor=none;fillColor=none;align=center;verticalAlign=middle;whiteSpace=wrap;rounded=0;movable=0;resizable=0;rotatable=0;deletable=0;editable=0;locked=1;connectable=0;" vertex="1" parent="1">
          <mxGeometry x="-140" y="452" width="60" height="30" as="geometry" />
        </mxCell>
        <mxCell id="p6P-zNKTo9UFHfSMEd2O-29" value="docker swarm proxy" style="rounded=1;whiteSpace=wrap;html=1;movable=0;resizable=0;rotatable=0;deletable=0;editable=0;locked=1;connectable=0;" vertex="1" parent="1">
          <mxGeometry x="-280" y="398" width="260" height="25" as="geometry" />
        </mxCell>
        <mxCell id="p6P-zNKTo9UFHfSMEd2O-33" value="" style="group;movable=0;resizable=0;rotatable=0;deletable=0;editable=0;locked=1;connectable=0;" vertex="1" connectable="0" parent="1">
          <mxGeometry x="370" y="431" width="60" height="70" as="geometry" />
        </mxCell>
        <mxCell id="p6P-zNKTo9UFHfSMEd2O-34" value="" style="group;movable=0;resizable=0;rotatable=0;deletable=0;editable=0;locked=1;connectable=0;" vertex="1" connectable="0" parent="p6P-zNKTo9UFHfSMEd2O-33">
          <mxGeometry width="60" height="70" as="geometry" />
        </mxCell>
        <mxCell id="p6P-zNKTo9UFHfSMEd2O-35" value="" style="rounded=1;whiteSpace=wrap;html=1;" vertex="1" parent="p6P-zNKTo9UFHfSMEd2O-34">
          <mxGeometry width="60" height="70" as="geometry" />
        </mxCell>
        <mxCell id="p6P-zNKTo9UFHfSMEd2O-36" value="Pod" style="text;html=1;strokeColor=none;fillColor=none;align=center;verticalAlign=middle;whiteSpace=wrap;rounded=0;" vertex="1" parent="p6P-zNKTo9UFHfSMEd2O-34">
          <mxGeometry y="20" width="60" height="30" as="geometry" />
        </mxCell>
        <mxCell id="p6P-zNKTo9UFHfSMEd2O-37" value="" style="group;movable=0;resizable=0;rotatable=0;deletable=0;editable=0;locked=1;connectable=0;" vertex="1" connectable="0" parent="1">
          <mxGeometry x="217" y="431" width="59" height="70" as="geometry" />
        </mxCell>
        <mxCell id="p6P-zNKTo9UFHfSMEd2O-38" value="" style="group;movable=0;resizable=0;rotatable=0;deletable=0;editable=0;locked=1;connectable=0;" vertex="1" connectable="0" parent="p6P-zNKTo9UFHfSMEd2O-37">
          <mxGeometry width="60" height="70" as="geometry" />
        </mxCell>
        <mxCell id="p6P-zNKTo9UFHfSMEd2O-39" value="" style="rounded=1;whiteSpace=wrap;html=1;" vertex="1" parent="p6P-zNKTo9UFHfSMEd2O-38">
          <mxGeometry width="60" height="70" as="geometry" />
        </mxCell>
        <mxCell id="p6P-zNKTo9UFHfSMEd2O-40" value="Pod" style="text;html=1;strokeColor=none;fillColor=none;align=center;verticalAlign=middle;whiteSpace=wrap;rounded=0;" vertex="1" parent="p6P-zNKTo9UFHfSMEd2O-38">
          <mxGeometry y="20" width="60" height="30" as="geometry" />
        </mxCell>
        <mxCell id="p6P-zNKTo9UFHfSMEd2O-41" value="" style="group;movable=0;resizable=0;rotatable=0;deletable=0;editable=0;locked=1;connectable=0;" vertex="1" connectable="0" parent="1">
          <mxGeometry x="142" y="432" width="59" height="70" as="geometry" />
        </mxCell>
        <mxCell id="p6P-zNKTo9UFHfSMEd2O-42" value="" style="group;movable=0;resizable=0;rotatable=0;deletable=0;editable=0;locked=1;connectable=0;" vertex="1" connectable="0" parent="p6P-zNKTo9UFHfSMEd2O-41">
          <mxGeometry width="60" height="70" as="geometry" />
        </mxCell>
        <mxCell id="p6P-zNKTo9UFHfSMEd2O-43" value="" style="rounded=1;whiteSpace=wrap;html=1;" vertex="1" parent="p6P-zNKTo9UFHfSMEd2O-42">
          <mxGeometry width="60" height="70" as="geometry" />
        </mxCell>
        <mxCell id="p6P-zNKTo9UFHfSMEd2O-44" value="Pod" style="text;html=1;strokeColor=none;fillColor=none;align=center;verticalAlign=middle;whiteSpace=wrap;rounded=0;" vertex="1" parent="p6P-zNKTo9UFHfSMEd2O-42">
          <mxGeometry y="20" width="60" height="30" as="geometry" />
        </mxCell>
        <mxCell id="p6P-zNKTo9UFHfSMEd2O-45" value="&lt;font style=&quot;font-size: 36px;&quot;&gt;...&lt;/font&gt;" style="text;html=1;strokeColor=none;fillColor=none;align=center;verticalAlign=middle;whiteSpace=wrap;rounded=0;movable=0;resizable=0;rotatable=0;deletable=0;editable=0;locked=1;connectable=0;" vertex="1" parent="1">
          <mxGeometry x="290" y="451" width="60" height="30" as="geometry" />
        </mxCell>
        <mxCell id="p6P-zNKTo9UFHfSMEd2O-46" value="docker swarm proxy" style="rounded=1;whiteSpace=wrap;html=1;movable=0;resizable=0;rotatable=0;deletable=0;editable=0;locked=1;connectable=0;" vertex="1" parent="1">
          <mxGeometry x="150" y="397" width="260" height="25" as="geometry" />
        </mxCell>
        <mxCell id="p6P-zNKTo9UFHfSMEd2O-47" value="" style="shape=flexArrow;endArrow=classic;startArrow=classic;html=1;rounded=0;entryX=0.971;entryY=0.938;entryDx=0;entryDy=0;entryPerimeter=0;startWidth=28;startSize=18.7;width=25;endSize=15.05;fillColor=#FFFFFF;" edge="1" parent="1">
          <mxGeometry width="100" height="100" relative="1" as="geometry">
            <mxPoint x="-310" y="532" as="sourcePoint" />
            <mxPoint x="440.1399999999999" y="529.0799999999999" as="targetPoint" />
            <Array as="points">
              <mxPoint x="60" y="529" />
            </Array>
          </mxGeometry>
        </mxCell>
        <mxCell id="p6P-zNKTo9UFHfSMEd2O-51" value="&lt;font style=&quot;font-size: 18px;&quot;&gt;Internal&amp;nbsp; network&lt;/font&gt;" style="edgeLabel;html=1;align=center;verticalAlign=middle;resizable=0;points=[];" vertex="1" connectable="0" parent="p6P-zNKTo9UFHfSMEd2O-47">
          <mxGeometry x="-0.1921" y="4" relative="1" as="geometry">
            <mxPoint x="67" y="4" as="offset" />
          </mxGeometry>
        </mxCell>
      </root>
    </mxGraphModel>
  </diagram>
</mxfile>
